<svg viewBox="-10 -10 300 300" fill="none" xmlns="http://www.w3.org/2000/svg">
<path d="M67.3771 212.855H71.5001C71.8451 191.63 72.3771 166.5 72.3771 142.855C82.956 142.992 92.9561 145.492 102.377 150.355C131.205 167.853 142.872 193.353 137.377 226.855C131.435 251.637 116.435 268.47 92.3771 277.355C56.5731 287.35 28.7395 276.85 8.87706 245.855C-7.43386 211.186 -1.26725 181.353 27.3771 156.355C37.9779 148.99 49.6451 144.49 62.3771 142.855H67.3771V212.855Z" fill="#272625"/>
<path d="M220.377 142.855C250.644 148.291 270.477 165.624 279.877 194.855C285.237 224.119 276.737 248.285 254.377 267.355C232.121 282.166 208.455 284.832 183.377 275.355C173.012 269.815 164.012 262.648 156.377 253.855C144.631 236.636 140.465 217.636 143.877 196.855C153.483 163.311 175.649 145.311 210.377 142.855V211.855C211.445 212.789 212.778 213.123 214.377 212.855V142.855H220.377Z" fill="#272625"/>
<path d="M201.377 0.355282C236.208 -2.48292 261.375 11.6838 276.877 42.8553C287.92 80.0762 277.42 109.243 245.377 130.355C237.405 134.18 229.072 136.68 220.377 137.855H214.377V67.8553C212.778 67.5874 211.445 67.9213 210.377 68.8553V138.855C175.214 141.163 152.047 159.163 140.877 192.855C130.878 162.353 110.045 144.686 78.3771 139.855C76.2701 138.887 73.936 138.553 71.3771 138.855V68.8553H68.3771C67.3791 91.6822 67.0461 114.682 67.3771 137.855H60.3771C29.6789 132.661 10.1786 114.994 1.87706 84.8553C-4.00852 48.7934 9.15842 22.2934 41.3771 5.35528C81.2591 -7.60782 111.759 3.89219 132.877 39.8553C136.444 47.1213 138.277 54.7883 138.377 62.8553V117.855H143.377V60.8553C148.902 27.4963 168.235 7.32965 201.377 0.355282Z" fill="#272625"/>
</svg>
